<?xml version="1.0" encoding="UTF-8"?>
<svg id="Layer_1" data-name="Layer 1" xmlns="http://www.w3.org/2000/svg" viewBox="0 0 100 100">
  <defs>
    <style>
      .cls-1 {
        fill: #fff;
      }
    </style>
  </defs>
  <path class="cls-1" d="M73.74,21.18c-2.9,0-5.26,2.35-5.26,5.26s2.35,5.26,5.26,5.26,5.26-2.35,5.26-5.26-2.35-5.26-5.26-5.26Z"/>
  <path class="cls-1" d="M50.37,27.92c-12.18,0-22.08,9.91-22.08,22.08s9.91,22.08,22.08,22.08,22.08-9.91,22.08-22.08-9.91-22.08-22.08-22.08ZM50.37,64.15c-7.8,0-14.15-6.35-14.15-14.15s6.35-14.15,14.15-14.15,14.14,6.35,14.14,14.15-6.35,14.15-14.14,14.15Z"/>
  <path class="cls-1" d="M67.9,94.83h-35.8c-14.85,0-26.93-12.08-26.93-26.93v-35.8c0-14.85,12.08-26.93,26.93-26.93h35.8c14.85,0,26.94,12.08,26.94,26.93v35.8c0,14.85-12.08,26.93-26.94,26.93ZM32.1,13.6c-10.2,0-18.5,8.3-18.5,18.5v35.8c0,10.2,8.3,18.5,18.5,18.5h35.8c10.2,0,18.5-8.3,18.5-18.5v-35.8c0-10.2-8.3-18.5-18.5-18.5h-35.8Z"/>
</svg>